# xmcd
#
# Track frame offsets:
#	150
#	13597
#	28552
#	42482
#	68355
#	78135
#	93750
#	108675
#	121740
#	144755
#	154827
#	171210
#	191587
#	205817
#	227312
#
# Disc length: 3245 seconds
#
# Revision: 2
# Processed by: cddbd v1.5.2PL0 Copyright (c) Steve Scherf et al.
# Submitted via: EasyCDDAExtractor 15.2.1.1
#
DISCID=ad0cab0f
DTITLE=The Renovators - Rhythm and Blueprints
DYEAR=1999
DGENRE=Blues
TTITLE0=Rip Up The House
TTITLE1=Everybody Loves The Blues
TTITLE2=The`Big One
TTITLE3=Who's To Blame
TTITLE4=Renovator's Boogie
TTITLE5=It's Been Done
TTITLE6=Something Else
TTITLE7=Bandaido
TTITLE8=Never Really Saw Your Face
TTITLE9=You Snooze You Lose
TTITLE10=Special Ride
TTITLE11=Blue Reggae
TTITLE12=I Don't Ski
TTITLE13=I Keep Dreaming
TTITLE14=Excavator
EXTD=
EXTT0=
EXTT1=
EXTT2=
EXTT3=
EXTT4=
EXTT5=
EXTT6=
EXTT7=
EXTT8=
EXTT9=
EXTT10=
EXTT11=
EXTT12=
EXTT13=
EXTT14=
PLAYORDER=
